# xmcd CD database file
#
# Track frame offsets:
#	150
#	19058
#	32117
#	42092
#	50476
#	66069
#	82276
#
# Disc length: 1202 seconds
#
# Revision: 1
# Processed by: cddbd v1.4PL0 Copyright (c) Steve Scherf et al.
# Submitted via: CDex 1.51
#
DISCID=5804b007
DTITLE=Frank Schmidt - Unplugged
DYEAR=2003
DGENRE=Rhythmic Soul
TTITLE0=Cowgirl in the sand
TTITLE1=Don't let it bring you down
TTITLE2=Needle and the damage done
TTITLE3=After the goldrush
TTITLE4=Words
TTITLE5=Helpless, helpless, helpless
TTITLE6=A man needs a maid
EXTD=YEAR: 2003
EXTT0=
EXTT1=
EXTT2=
EXTT3=
EXTT4=
EXTT5=
EXTT6=
PLAYORDER=
